<svg width="25" height="24" viewBox="0 0 25 24" fill="none" xmlns="http://www.w3.org/2000/svg">
<path d="M8.33171 2.3999C5.11587 2.3999 2.5 4.91346 2.5 8.00146V16.0015C2.5 19.0887 5.11829 21.5999 8.33496 21.5999H16.6683C19.8841 21.5999 22.5 19.0863 22.5 15.9983V7.99834C22.5 4.91114 19.8817 2.3999 16.665 2.3999H8.33171ZM18.3333 5.5999C18.7933 5.5999 19.1667 5.9583 19.1667 6.3999C19.1667 6.8415 18.7933 7.1999 18.3333 7.1999C17.8733 7.1999 17.5 6.8415 17.5 6.3999C17.5 5.9583 17.8733 5.5999 18.3333 5.5999ZM12.5 7.1999C15.2575 7.1999 17.5 9.3527 17.5 11.9999C17.5 14.6471 15.2575 16.7999 12.5 16.7999C9.7425 16.7999 7.5 14.6471 7.5 11.9999C7.5 9.3527 9.7425 7.1999 12.5 7.1999ZM12.5 8.7999C11.6159 8.7999 10.7681 9.13704 10.143 9.73716C9.51786 10.3373 9.16667 11.1512 9.16667 11.9999C9.16667 12.8486 9.51786 13.6625 10.143 14.2626C10.7681 14.8628 11.6159 15.1999 12.5 15.1999C13.3841 15.1999 14.2319 14.8628 14.857 14.2626C15.4821 13.6625 15.8333 12.8486 15.8333 11.9999C15.8333 11.1512 15.4821 10.3373 14.857 9.73716C14.2319 9.13704 13.3841 8.7999 12.5 8.7999Z" fill="white"/>
</svg>
