<svg width="25" height="25" viewBox="0 0 25 25" fill="none" xmlns="http://www.w3.org/2000/svg">
<path d="M20 3.33325H5.00004C4.07921 3.33325 3.33337 4.07909 3.33337 4.99992V19.9999C3.33337 20.9207 4.07921 21.6666 5.00004 21.6666H20C20.9209 21.6666 21.6667 20.9207 21.6667 19.9999V4.99992C21.6667 4.07909 20.9209 3.33325 20 3.33325ZM9.12837 18.3333H6.67004V10.4233H9.12837V18.3333ZM7.87421 9.29242C7.08171 9.29242 6.44087 8.64992 6.44087 7.85908C6.44087 7.06825 7.08254 6.42658 7.87421 6.42658C8.66421 6.42658 9.30671 7.06908 9.30671 7.85908C9.30671 8.64992 8.66421 9.29242 7.87421 9.29242ZM18.3367 18.3333H15.88V14.4866C15.88 13.5691 15.8634 12.3891 14.6025 12.3891C13.3234 12.3891 13.1267 13.3883 13.1267 14.4199V18.3333H10.67V10.4233H13.0284V11.5041H13.0617C13.39 10.8824 14.1917 10.2266 15.3875 10.2266C17.8767 10.2266 18.3367 11.8649 18.3367 13.9949V18.3333Z" fill="white"/>
</svg>
