<svg width="25" height="25" viewBox="0 0 25 25" fill="none" xmlns="http://www.w3.org/2000/svg">
<path d="M23.3334 5.78094C22.5359 6.13511 21.6792 6.37344 20.7801 6.48094C21.6984 5.93094 22.4026 5.06011 22.7342 4.02178C21.8759 4.53094 20.9242 4.90094 19.9109 5.10094C19.1001 4.23678 17.9451 3.69678 16.6667 3.69678C14.2117 3.69678 12.2217 5.68761 12.2217 8.14178C12.2217 8.49011 12.2617 8.83011 12.3367 9.15428C8.64256 8.96928 5.36756 7.19928 3.17423 4.50928C2.79256 5.16594 2.57339 5.92928 2.57339 6.74511C2.57339 8.28678 3.35756 9.64761 4.55006 10.4443C3.82173 10.4209 3.13589 10.2209 2.53673 9.88844C2.53673 9.90761 2.53673 9.92511 2.53673 9.94428C2.53673 12.0984 4.06839 13.8951 6.10256 14.3026C5.73006 14.4043 5.33673 14.4584 4.93089 14.4584C4.64506 14.4584 4.36589 14.4301 4.09506 14.3793C4.66089 16.1451 6.30256 17.4309 8.24756 17.4668C6.72673 18.6593 4.81006 19.3701 2.72673 19.3701C2.36839 19.3701 2.01423 19.3493 1.66589 19.3076C3.63339 20.5684 5.96923 21.3043 8.48006 21.3043C16.6567 21.3043 21.1267 14.5309 21.1267 8.65678C21.1267 8.46428 21.1226 8.27261 21.1142 8.08178C21.9834 7.45428 22.7376 6.67178 23.3334 5.78094Z" fill="white"/>
</svg>
