<svg width="50" height="50" viewBox="0 0 50 50" fill="none" xmlns="http://www.w3.org/2000/svg">
<g clip-path="url(#clip0_16_2420)">
<path d="M0.0293274 50V26.1843C6.74545 26.1843 9.72282 23.366 15.8142 16.9799C22.6475 9.81415 32.0285 -0.00995636 50.0293 -0.00995636V23.7958C43.323 23.7958 40.3456 26.624 34.2542 33.0102C27.421 40.1759 18.0399 50 0.0293274 50Z" fill="black"/>
</g>
<path d="M45.2365 44.6342V45.8435H45.9004C46.3982 45.8435 46.652 45.6436 46.652 45.2438C46.652 44.844 46.3982 44.6342 45.9004 44.6342H45.2365ZM46.6422 47.6324L45.8808 46.5131H45.2365V47.6324H44.5044V43.9945H46.1054C46.3914 43.9878 46.6709 44.0835 46.8955 44.265C47.1201 44.4465 47.2759 44.7025 47.336 44.9889C47.3962 45.2754 47.3568 45.5743 47.2249 45.8343C47.0929 46.0942 46.8765 46.2989 46.613 46.4131L47.472 47.6324H46.6422ZM43.7137 48.1521C43.9866 48.4392 44.3129 48.6674 44.6734 48.8232C45.0339 48.979 45.4212 49.0593 45.8125 49.0593C46.2038 49.0593 46.5911 48.979 46.9516 48.8232C47.3121 48.6674 47.6384 48.4392 47.9113 48.1521C48.4685 47.5583 48.7797 46.7668 48.7797 45.9434C48.7797 45.12 48.4685 44.3285 47.9113 43.7348C47.6384 43.4477 47.3121 43.2195 46.9516 43.0636C46.5911 42.9078 46.2038 42.8275 45.8125 42.8275C45.4212 42.8275 45.0339 42.9078 44.6734 43.0636C44.3129 43.2195 43.9866 43.4477 43.7137 43.7348C43.1675 44.3343 42.8637 45.1235 42.8637 45.9434C42.8637 46.7632 43.1675 47.5526 43.7137 48.1521ZM43.0792 43.1551C43.4348 42.7816 43.8598 42.4847 44.3293 42.282C44.7987 42.0793 45.303 41.9749 45.8125 41.9749C46.322 41.9749 46.8263 42.0793 47.2957 42.282C47.7652 42.4847 48.1902 42.7816 48.5458 43.1551C48.9089 43.5264 49.1969 43.9672 49.3934 44.4525C49.5899 44.9378 49.691 45.4581 49.691 45.9834C49.691 46.5088 49.5899 47.0289 49.3934 47.5142C49.1969 47.9995 48.9089 48.4404 48.5458 48.8117C47.8159 49.5441 46.8346 49.9544 45.8125 49.9544C44.7904 49.9544 43.8091 49.5441 43.0792 48.8117C42.3713 48.0484 41.9766 47.036 41.9766 45.9834C41.9766 44.9308 42.3713 43.9184 43.0792 43.1551Z" fill="black"/>
<defs>
<clipPath id="clip0_16_2420">
<rect width="50" height="50" fill="white"/>
</clipPath>
</defs>
</svg>
