<svg width="334" height="36" viewBox="0 0 334 36" fill="none" xmlns="http://www.w3.org/2000/svg">
<path d="M231.305 12.7897V0.31665H235.87C238.509 0.31665 240.181 1.42497 240.181 3.62402C240.172 4.16864 240.018 4.70104 239.733 5.16534C239.448 5.62965 239.044 6.00876 238.562 6.26288C239.132 6.51711 239.616 6.93046 239.956 7.45322C240.296 7.97599 240.478 8.58591 240.48 9.20962C240.501 9.70344 240.406 10.1953 240.203 10.6459C240 11.0965 239.694 11.4933 239.31 11.8045C238.412 12.4701 237.312 12.8056 236.196 12.7545L231.305 12.7897ZM232.66 1.60089V5.79669H236.178C237.744 5.79669 238.817 5.06659 238.817 3.6592C238.817 2.25181 237.718 1.60089 236.178 1.60089H232.66ZM232.66 11.5054H236.354C238.008 11.5054 239.107 10.7226 239.107 9.20962C239.107 7.69667 237.99 7.08092 236.469 7.08092H232.704L232.66 11.5054ZM250.455 8.86655H243.963C243.949 9.25485 244.016 9.6418 244.159 10.003C244.302 10.3642 244.519 10.6919 244.795 10.9654C245.071 11.2389 245.4 11.4523 245.763 11.5922C246.125 11.732 246.513 11.7954 246.901 11.7781C247.387 11.7758 247.865 11.6591 248.298 11.4375C248.73 11.2159 249.104 10.8957 249.39 10.5027L250.27 11.3823C249.872 11.9043 249.358 12.3269 248.769 12.6168C248.179 12.9068 247.531 13.0563 246.874 13.0536C246.294 13.0799 245.714 12.982 245.174 12.7667C244.634 12.5513 244.146 12.2233 243.743 11.8045C242.953 10.9089 242.541 9.74281 242.591 8.5499C242.547 7.36211 242.924 6.19691 243.655 5.26012C244.284 4.5427 245.155 4.08105 246.102 3.9627C247.048 3.84434 248.006 4.07751 248.792 4.618C249.347 5.05151 249.787 5.61377 250.075 6.25601C250.364 6.89826 250.491 7.6011 250.446 8.3036L250.455 8.86655ZM244.033 7.66148H249.162C249.169 7.32636 249.108 6.99324 248.984 6.6818C248.861 6.37036 248.675 6.08694 248.44 5.84829C248.205 5.60964 247.924 5.42062 247.614 5.2924C247.304 5.16417 246.972 5.09935 246.637 5.10178C245.142 5.10178 244.253 6.14853 244.033 7.66148ZM258.811 10.2212V5.27771H257.395V4.09022H258.811V1.65366H260.13V4.09022H262.153V5.2953H260.13V10.0453C260.13 11.1888 260.412 11.6286 261.467 11.6286H262.153V12.8248C261.925 12.8248 261.643 12.8248 261.335 12.8248C259.611 12.8248 258.793 12.0948 258.793 10.2476L258.811 10.2212ZM265.848 0.31665V5.11937C266.181 4.72266 266.597 4.40423 267.066 4.1868C267.536 3.96938 268.048 3.85831 268.566 3.86152C270.791 3.86152 272.032 5.24252 272.032 7.71425V12.7897H270.703V7.6087C270.703 5.9902 269.885 5.08419 268.478 5.08419C266.772 5.08419 265.839 6.38603 265.839 8.46194V12.7897H264.52V0.31665H265.848ZM281.857 8.84017H275.365C275.35 9.22804 275.416 9.6148 275.558 9.976C275.7 10.3372 275.916 10.665 276.191 10.9386C276.466 11.2123 276.796 11.4258 277.158 11.5658C277.52 11.7057 277.907 11.769 278.295 11.7517C278.78 11.7494 279.259 11.6327 279.691 11.4111C280.124 11.1895 280.498 10.8693 280.784 10.4763L281.664 11.3559C281.265 11.8779 280.751 12.3005 280.162 12.5904C279.573 12.8804 278.925 13.0299 278.268 13.0272C277.687 13.0529 277.108 12.9548 276.568 12.7395C276.028 12.5241 275.54 12.1964 275.137 11.7781C274.347 10.8826 273.934 9.71641 273.984 8.5235C273.94 7.33571 274.317 6.17052 275.049 5.23373C275.394 4.79917 275.836 4.45231 276.341 4.22147C276.845 3.99064 277.397 3.88236 277.952 3.90549C278.755 3.87922 279.544 4.12058 280.195 4.59161C280.745 5.02911 281.182 5.59206 281.47 6.23331C281.757 6.87457 281.887 7.57544 281.848 8.27721L281.857 8.84017ZM275.418 7.66148H280.538C280.545 7.32636 280.484 6.99324 280.361 6.6818C280.237 6.37036 280.052 6.08694 279.816 5.84829C279.581 5.60964 279.3 5.42062 278.99 5.2924C278.681 5.16417 278.348 5.09935 278.013 5.10178C276.527 5.10178 275.638 6.14853 275.409 7.66148H275.418ZM290.636 13.5637C290.871 14.0639 291.244 14.4863 291.712 14.7809C292.18 15.0755 292.722 15.23 293.274 15.2262C295.148 15.2262 296.16 14.0123 296.16 12.1827V11.3031C295.828 11.7375 295.394 12.084 294.897 12.3125C294.401 12.5409 293.856 12.6443 293.31 12.6137C292.78 12.6242 292.254 12.5186 291.769 12.3043C291.285 12.0901 290.853 11.7724 290.504 11.3735C289.771 10.498 289.369 9.39261 289.369 8.25082C289.369 7.10903 289.771 6.00363 290.504 5.12817C290.853 4.72927 291.285 4.41157 291.769 4.19731C292.254 3.98306 292.78 3.87745 293.31 3.88791C293.862 3.86183 294.412 3.96888 294.914 4.20004C295.416 4.4312 295.856 4.77969 296.195 5.21613V4.09022H297.479V12.0948C297.479 14.7336 295.861 16.4489 293.274 16.4489C292.556 16.4761 291.842 16.3111 291.209 15.9709C290.575 15.6308 290.043 15.1278 289.668 14.5137L290.636 13.5637ZM291.515 10.4763C291.763 10.7527 292.066 10.9738 292.405 11.1252C292.743 11.2766 293.11 11.3548 293.481 11.3548C293.852 11.3548 294.219 11.2766 294.558 11.1252C294.897 10.9738 295.2 10.7527 295.447 10.4763C295.954 9.83498 296.229 9.04165 296.229 8.22443C296.229 7.40722 295.954 6.61389 295.447 5.97261C295.2 5.69618 294.897 5.47506 294.558 5.32367C294.219 5.17228 293.852 5.09403 293.481 5.09403C293.11 5.09403 292.743 5.17228 292.405 5.32367C292.066 5.47506 291.763 5.69618 291.515 5.97261C291.019 6.6183 290.75 7.40995 290.75 8.22443C290.75 9.03892 291.019 9.83057 291.515 10.4763ZM307.076 5.19854V4.09022H308.395V12.8073H307.076V11.6989C306.728 12.1219 306.288 12.4592 305.789 12.685C305.291 12.9107 304.747 13.0188 304.199 13.0008C303.624 13.0138 303.053 12.9026 302.525 12.6749C301.997 12.4472 301.524 12.1083 301.138 11.6814C300.372 10.7771 299.951 9.62996 299.951 8.44434C299.951 7.25872 300.372 6.11161 301.138 5.20734C301.521 4.77597 301.993 4.43354 302.522 4.20408C303.05 3.97462 303.623 3.86369 304.199 3.8791C304.74 3.86547 305.277 3.97479 305.769 4.19878C306.261 4.42277 306.696 4.75559 307.041 5.17215L307.076 5.19854ZM302.088 10.8105C302.352 11.1069 302.675 11.3441 303.036 11.5066C303.398 11.6691 303.79 11.7531 304.186 11.7531C304.583 11.7531 304.975 11.6691 305.336 11.5066C305.698 11.3441 306.021 11.1069 306.284 10.8105C306.848 10.1468 307.146 9.29738 307.12 8.42674C307.147 7.56119 306.849 6.71679 306.284 6.06057C306.032 5.7553 305.715 5.51062 305.355 5.34465C304.996 5.17868 304.604 5.09567 304.208 5.10178C303.811 5.09434 303.417 5.17671 303.056 5.34273C302.695 5.50874 302.376 5.75413 302.123 6.06057C301.564 6.71895 301.272 7.56338 301.305 8.42674C301.273 9.28931 301.551 10.1349 302.088 10.8105ZM312.644 4.09022V5.13697C312.935 4.74634 313.313 4.42914 313.748 4.21073C314.183 3.99233 314.664 3.87876 315.151 3.8791C315.682 3.83918 316.213 3.95319 316.681 4.20747C317.149 4.46176 317.534 4.84555 317.79 5.31289C318.081 4.85984 318.484 4.48974 318.96 4.23852C319.436 3.98729 319.969 3.86347 320.508 3.8791C322.751 3.8791 323.877 5.15456 323.877 7.73185V12.8073H322.557V7.6087C322.557 5.91983 321.88 5.08419 320.525 5.08419C319.171 5.08419 318.291 6.13093 318.291 7.98693V12.7897H316.971V7.69667C316.971 5.93743 316.312 5.05781 315.019 5.05781C313.523 5.05781 312.723 6.10455 312.723 7.96055V12.7633H311.404V4.09022H312.644ZM334.001 8.85776H327.509C327.496 9.24606 327.562 9.63301 327.706 9.99423C327.849 10.3554 328.065 10.6831 328.341 10.9566C328.617 11.2301 328.947 11.4435 329.309 11.5834C329.672 11.7232 330.059 11.7865 330.447 11.7693C330.933 11.767 331.412 11.6503 331.844 11.4287C332.277 11.2071 332.651 10.8869 332.937 10.4939L333.816 11.3735C333.417 11.895 332.904 12.3172 332.314 12.6071C331.725 12.897 331.077 13.0468 330.421 13.0448C329.84 13.071 329.26 12.9733 328.721 12.7579C328.181 12.5425 327.693 12.2145 327.289 11.7957C326.497 10.901 326.081 9.73506 326.128 8.5411C326.087 7.35233 326.467 6.18728 327.201 5.25133C327.545 4.81799 327.987 4.47188 328.49 4.24109C328.992 4.01031 329.543 3.90136 330.095 3.92309C330.899 3.89681 331.688 4.13816 332.338 4.60919C332.889 5.04669 333.326 5.60966 333.614 6.25091C333.901 6.89217 334.031 7.59304 333.992 8.29481L334.001 8.85776ZM327.597 7.66148H332.717C332.724 7.32636 332.664 6.99324 332.54 6.6818C332.416 6.37036 332.231 6.08694 331.995 5.84829C331.76 5.60964 331.479 5.42062 331.169 5.2924C330.86 5.16417 330.527 5.09935 330.192 5.10178C328.714 5.10178 327.826 6.14853 327.597 7.66148Z" fill="white"/>
<path d="M238.756 30.5492C238.341 31.0834 237.807 31.5128 237.196 31.8031C236.585 32.0933 235.914 32.2363 235.238 32.2205C234.652 32.2344 234.07 32.124 233.53 31.8966C232.991 31.6692 232.505 31.3299 232.106 30.9011C231.281 30.0317 230.832 28.8715 230.857 27.6729C230.846 27.0777 230.954 26.4864 231.174 25.9336C231.395 25.3807 231.724 24.8775 232.141 24.4534C232.54 24.0174 233.027 23.6711 233.57 23.4375C234.113 23.204 234.7 23.0885 235.29 23.0988C235.916 23.0885 236.535 23.2229 237.099 23.4914C237.664 23.76 238.159 24.1555 238.545 24.647L237.665 25.5266C237.393 25.161 237.04 24.8625 236.635 24.6537C236.229 24.4449 235.782 24.3313 235.326 24.3215C234.909 24.3129 234.496 24.3949 234.115 24.562C233.734 24.7291 233.394 24.9772 233.118 25.2891C232.823 25.6061 232.593 25.9784 232.442 26.3845C232.291 26.7905 232.222 27.2224 232.238 27.6553C232.187 28.329 232.357 29.001 232.723 29.5689C233.089 30.1368 233.631 30.5694 234.266 30.8006C234.901 31.0318 235.594 31.049 236.239 30.8496C236.885 30.6501 237.448 30.245 237.841 29.696L238.756 30.5492ZM242.275 19.5627V24.3215C242.608 23.9236 243.026 23.6045 243.497 23.387C243.969 23.1696 244.482 23.0591 245.001 23.0636C247.218 23.0636 248.467 24.4534 248.467 26.9252V31.9918H247.13V26.8196C247.13 25.2011 246.312 24.2863 244.913 24.2863C243.198 24.2863 242.275 25.5881 242.275 27.6729V31.9918H240.964V19.5627H242.275ZM257.624 24.4183V23.3099H258.987V32.027H257.668V30.9275C257.322 31.3519 256.882 31.6898 256.383 31.9143C255.883 32.1387 255.339 32.2436 254.792 32.2205C254.216 32.2358 253.644 32.1257 253.116 31.8979C252.587 31.6701 252.115 31.3299 251.731 30.9011C250.959 30.0006 250.536 28.854 250.536 27.6684C250.536 26.4829 250.959 25.3364 251.731 24.4359C252.111 24.0015 252.583 23.6564 253.112 23.4253C253.641 23.1942 254.214 23.0827 254.792 23.0988C255.339 23.0802 255.884 23.1899 256.382 23.4189C256.88 23.648 257.317 23.9902 257.659 24.4183H257.624ZM252.628 30.0478C252.889 30.3467 253.212 30.5863 253.574 30.7504C253.936 30.9145 254.328 30.9994 254.726 30.9994C255.123 30.9994 255.516 30.9145 255.877 30.7504C256.239 30.5863 256.562 30.3467 256.824 30.0478C257.385 29.3863 257.683 28.5405 257.659 27.6729C257.69 26.8068 257.392 25.9611 256.824 25.3067C256.568 25.0033 256.25 24.7593 255.891 24.592C255.531 24.4246 255.14 24.3379 254.743 24.3379C254.347 24.3379 253.955 24.4246 253.596 24.592C253.236 24.7593 252.918 25.0033 252.663 25.3067C252.1 25.9633 251.808 26.809 251.845 27.6729C251.822 28.5373 252.112 29.381 252.663 30.0478H252.628ZM263.262 23.3099V24.3831C263.599 23.9802 264.02 23.6564 264.496 23.4344C264.972 23.2125 265.491 23.0979 266.016 23.0988C268.241 23.0988 269.534 24.4886 269.534 26.9604V32.027H268.197V26.8548C268.197 25.2363 267.379 24.3215 265.972 24.3215C264.265 24.3215 263.333 25.6233 263.333 27.708V32.027H262.013V23.3099H263.262ZM273.079 32.8098C273.316 33.3077 273.69 33.7277 274.158 34.0205C274.625 34.3134 275.166 34.4671 275.718 34.4635C277.583 34.4635 278.603 33.2497 278.603 31.42V30.5404C278.271 30.9758 277.838 31.3236 277.342 31.5536C276.845 31.7835 276.3 31.8887 275.753 31.8599C275.223 31.8686 274.697 31.7614 274.212 31.5456C273.727 31.3299 273.296 31.0108 272.947 30.6108C272.209 29.7376 271.804 28.6313 271.804 27.4881C271.804 26.3449 272.209 25.2387 272.947 24.3655C273.296 23.9666 273.728 23.6489 274.213 23.4346C274.697 23.2204 275.223 23.1148 275.753 23.1252C276.306 23.0994 276.857 23.2075 277.359 23.4403C277.862 23.673 278.3 24.0236 278.638 24.4622V23.3363H279.914V31.3585C279.914 33.9973 278.295 35.7126 275.718 35.7126C274.998 35.7426 274.284 35.5788 273.65 35.2383C273.015 34.8979 272.484 34.3934 272.111 33.7774L273.079 32.8098ZM273.959 29.7136C274.196 29.9982 274.496 30.2253 274.834 30.3776C275.172 30.53 275.541 30.6037 275.911 30.5932C276.286 30.6039 276.658 30.5304 277.001 30.3782C277.343 30.2259 277.647 29.9988 277.89 29.7136C278.398 29.0743 278.674 28.2823 278.674 27.4662C278.674 26.6501 278.398 25.8579 277.89 25.2187C277.647 24.9339 277.343 24.7072 277 24.555C276.658 24.4028 276.286 24.3291 275.911 24.3391C275.541 24.3292 275.172 24.4032 274.834 24.5555C274.496 24.7078 274.197 24.9345 273.959 25.2187C273.463 25.863 273.194 26.6532 273.194 27.4662C273.194 28.2791 273.463 29.0693 273.959 29.7136ZM290.232 28.0775H283.74C283.725 28.4657 283.791 28.8529 283.933 29.2145C284.075 29.5761 284.29 29.9045 284.565 30.1788C284.84 30.4531 285.169 30.6675 285.531 30.8085C285.894 30.9494 286.281 31.0139 286.669 30.9978C287.156 30.9952 287.635 30.8774 288.068 30.6542C288.5 30.4311 288.874 30.1087 289.158 29.7136L290.038 30.5492C289.637 31.0709 289.122 31.4931 288.531 31.783C287.941 32.0728 287.292 32.2226 286.634 32.2205C286.055 32.2478 285.477 32.1513 284.939 31.9374C284.4 31.7235 283.914 31.3972 283.511 30.9802C282.72 30.0851 282.304 28.9195 282.35 27.7256C282.309 26.5383 282.686 25.3741 283.415 24.4359C284.042 23.7127 284.914 23.2471 285.864 23.1286C286.814 23.01 287.774 23.2469 288.56 23.7937C289.113 24.2269 289.552 24.7878 289.84 25.4283C290.128 26.0687 290.257 26.7696 290.214 27.4705L290.232 28.0775ZM283.793 26.9076H288.895C288.902 26.5721 288.841 26.2385 288.718 25.9266C288.594 25.6147 288.409 25.3307 288.174 25.0913C287.938 24.852 287.658 24.6621 287.348 24.5329C287.038 24.4038 286.706 24.3378 286.37 24.3391C284.919 24.3215 284.03 25.3946 283.802 26.9076H283.793ZM297.198 24.471C297.099 24.4618 296.999 24.4618 296.899 24.471C294.832 24.471 293.996 25.5002 293.996 28.3238V32.0446H292.686V23.3275H293.961V24.4886C294.288 24.0501 294.721 23.7021 295.22 23.4774C295.718 23.2527 296.266 23.1587 296.811 23.2044C296.94 23.1956 297.069 23.1956 297.198 23.2044V24.471Z" fill="white"/>
<path d="M206.359 0V32.933" stroke="white" stroke-width="1.16"/>
<path d="M178.511 2.88509H177.728V4.03739H178.529C178.881 4.03739 179.259 3.88785 179.259 3.46563C179.259 3.04341 178.881 2.88509 178.511 2.88509ZM176.752 6.61468V1.97028H178.564C178.77 1.94366 178.979 1.96177 179.177 2.02338C179.375 2.08498 179.558 2.18863 179.712 2.32725C179.867 2.46586 179.99 2.63618 180.072 2.82657C180.155 3.01696 180.196 3.22294 180.191 3.43045C180.206 3.71785 180.128 4.00235 179.97 4.24275C179.812 4.48314 179.581 4.66694 179.312 4.76748L180.253 6.61468H179.224L178.344 4.9434H177.649V6.61468H176.752ZM175.072 4.29248C175.091 4.9286 175.297 5.54501 175.664 6.06463C176.032 6.58425 176.544 6.98404 177.138 7.21401C177.731 7.44397 178.379 7.49391 179.001 7.35758C179.623 7.22125 180.19 6.90471 180.633 6.44752C181.076 5.99033 181.374 5.41278 181.49 4.78708C181.606 4.16137 181.536 3.51528 181.287 2.92957C181.038 2.34386 180.622 1.84452 180.09 1.49399C179.559 1.14345 178.937 0.957274 178.3 0.958719C177.869 0.963272 177.442 1.05338 177.046 1.22384C176.649 1.3943 176.29 1.64172 175.99 1.95177C175.69 2.26182 175.454 2.62836 175.297 3.03014C175.139 3.43193 175.063 3.86098 175.072 4.29248ZM174.315 4.29248C174.331 3.50583 174.579 2.74131 175.027 2.0949C175.476 1.44849 176.105 0.948989 176.837 0.659101C177.568 0.369213 178.369 0.301862 179.139 0.465489C179.908 0.629117 180.612 1.01643 181.163 1.57883C181.713 2.14122 182.085 2.85364 182.231 3.62663C182.378 4.39962 182.293 5.19875 181.988 5.9237C181.682 6.64865 181.169 7.26713 180.513 7.70148C179.857 8.13583 179.087 8.36671 178.3 8.36513C177.771 8.35938 177.248 8.24948 176.762 8.0417C176.275 7.83391 175.834 7.53232 175.464 7.15413C175.094 6.77594 174.802 6.32858 174.605 5.83757C174.408 5.34657 174.31 4.82154 174.315 4.29248Z" fill="white"/>
<path d="M10.1772 18.5866C4.22219 17.4958 0.774071 14.2588 0.774071 9.11306C0.742658 7.83465 1.01867 6.56738 1.5789 5.41783C2.13914 4.26828 2.96719 3.27005 3.99346 2.5071C6.24237 0.800682 9.0093 -0.0812528 11.8309 0.00898194C14.017 -0.0243124 16.1846 0.413299 18.1866 1.29209C20.1885 2.17089 21.9779 3.47027 23.4331 5.10198L19.7299 9.11306C17.4429 6.33346 14.76 4.92606 11.6286 4.92606C8.04853 4.92606 6.16613 6.79086 6.16613 8.98111C6.16613 11.1714 7.92539 12.7547 11.3559 13.3001L14.4961 13.8542C21.2516 14.945 24.5238 18.4546 24.5238 23.6884C24.5517 24.9797 24.2738 26.2592 23.7128 27.4226C23.1517 28.586 22.3235 29.6002 21.2956 30.3823C19.1493 32.0712 16.2378 32.9332 12.4994 32.9332C10.0799 32.9875 7.68258 32.4617 5.50797 31.3996C3.33335 30.3376 1.44471 28.7702 0 26.8286L3.63284 23.099C5.91106 26.1513 8.64668 28.0161 13.1679 28.0161C16.9767 28.0161 19.123 26.2569 19.123 23.7763C19.123 21.2958 17.4165 19.8181 13.9772 19.2287L10.1772 18.5866Z" fill="white"/>
<path d="M49.804 0.501465H55.1697V18.2698C55.1697 27.7873 50.2438 32.9331 42.5031 32.9331C34.7625 32.9331 29.8278 27.7873 29.8278 18.2698V0.501465H35.2023V18.3138C35.2023 24.779 37.6212 27.9896 42.5031 27.9896C47.385 27.9896 49.804 24.7526 49.804 18.2434V0.501465Z" fill="white"/>
<path d="M67.124 27.5146H74.1082C78.7262 27.5146 81.0484 25.9665 81.0484 22.8702C81.0484 20.0467 78.8142 18.6305 74.2929 18.6305H67.124V27.5146ZM67.124 5.42735V13.6694H73.8004C78.0929 13.6694 80.248 12.2532 80.248 9.4824C80.248 6.37734 77.785 5.42735 73.5277 5.42735H67.124ZM61.8023 32.4317V0.501465H74.8735C78.1897 0.501465 80.8285 1.23155 82.7901 2.64774C83.7626 3.37912 84.5378 4.34091 85.0461 5.44649C85.5544 6.55207 85.7796 7.7667 85.7016 8.98101C85.7295 10.3217 85.4223 11.6481 84.8079 12.8401C84.1935 14.032 83.2913 15.0518 82.1831 15.8069C83.5163 16.5612 84.6198 17.6633 85.3757 18.9955C86.1317 20.3278 86.5119 21.8402 86.4757 23.3716C86.4757 28.9748 82.2711 32.4317 75.6827 32.4317H61.8023Z" fill="white"/>
<path d="M100.427 25.6499H99.31C99.3723 24.8446 99.633 24.0672 100.069 23.3872C100.505 22.7073 101.102 22.1459 101.808 21.7531C102.475 21.3064 103.217 20.9845 103.998 20.8031C104.834 20.636 105.951 20.724 106.637 20.1346C106.938 19.863 107.151 19.5076 107.248 19.1141C107.345 18.7207 107.322 18.3072 107.183 17.9268L103.4 7.86391L98.6591 20.6184L96.7327 25.6322L94.0939 32.4141H88.4555L100.726 0.483887H106.101L118.319 32.4141H112.724L110.085 25.6322L100.427 25.6499Z" fill="white"/>
<path d="M127.791 5.42735V16.5809H133.746C138.628 16.5809 141.047 14.7161 141.047 10.9778C141.047 7.23937 138.628 5.42735 133.746 5.42735H127.791ZM140.871 32.4317L134.283 21.5508H127.791V32.4317H122.461V0.501465H134.415C141.803 0.501465 146.378 4.38059 146.378 10.9338C146.378 15.6222 144.047 19.0439 139.974 20.6096L147.178 32.4053L140.871 32.4317Z" fill="white"/>
<path d="M161.35 25.6499H160.206C160.27 24.845 160.531 24.0682 160.967 23.3885C161.403 22.7088 161.999 22.1471 162.704 21.7531C163.364 21.3108 164.096 20.9891 164.868 20.8031C165.748 20.636 166.821 20.724 167.507 20.1346C167.808 19.8633 168.02 19.5075 168.116 19.1136C168.212 18.7197 168.187 18.306 168.043 17.9268L164.27 7.86391L159.52 20.6184L157.594 25.6322L154.999 32.4141H149.387L161.649 0.483887H167.023L179.25 32.4141H173.664L171.025 25.6322L161.35 25.6499Z" fill="white"/>
</svg>
